<?xml version="1.0" standalone="no"?>
<!DOCTYPE svg PUBLIC "-//W3C//DTD SVG 20010904//EN"
 "http://www.w3.org/TR/2001/REC-SVG-20010904/DTD/svg10.dtd">
<svg version="1.0" xmlns="http://www.w3.org/2000/svg"
 width="491.000000pt" height="508.000000pt" viewBox="0 0 491.000000 508.000000"
 preserveAspectRatio="xMidYMid meet">

<g transform="translate(0.000000,508.000000) scale(0.100000,-0.100000)"
fill="#000000" stroke="none">
<path d="M2340 4463 c-74 -63 -167 -143 -206 -177 -39 -33 -134 -111 -210
-172 -148 -119 -426 -341 -484 -386 -19 -15 -49 -39 -66 -53 l-31 -25 -89 76
c-49 42 -107 93 -130 113 -23 20 -117 101 -209 181 -93 80 -198 171 -234 203
-36 31 -69 57 -73 57 -5 0 -7 -530 -6 -1177 l3 -1177 205 -168 205 -168 8 102
c4 57 8 453 8 881 -1 427 2 777 5 777 6 0 242 -186 254 -200 3 -3 64 -52 135
-110 265 -214 1079 -881 1335 -1096 146 -122 302 -253 347 -290 45 -38 81 -74
80 -80 -1 -6 -105 -98 -232 -204 -126 -107 -285 -240 -352 -297 -67 -57 -127
-103 -132 -103 -6 0 -57 40 -113 88 -57 48 -208 175 -335 281 -128 107 -233
197 -233 202 0 4 66 65 148 134 81 70 148 133 150 139 3 12 -43 54 -251 229
-38 32 -74 56 -80 54 -7 -3 -100 -80 -207 -172 -107 -92 -251 -212 -320 -267
-69 -56 -131 -106 -138 -113 -10 -9 0 -22 50 -60 62 -48 206 -165 363 -295
142 -118 644 -531 804 -662 86 -70 161 -128 168 -128 6 0 38 22 70 48 203 169
549 457 553 462 3 3 129 109 280 235 526 437 502 416 488 432 -10 13 -336 283
-593 492 -44 36 -82 67 -85 71 -16 19 -824 682 -1226 1005 -116 94 -225 182
-242 197 -30 25 -42 48 -24 48 4 0 46 33 93 73 48 39 153 127 235 194 82 67
218 178 301 247 84 69 155 126 158 126 3 0 87 -69 187 -152 99 -84 271 -226
382 -315 110 -90 202 -169 204 -177 2 -7 -82 -84 -185 -171 -103 -87 -189
-163 -190 -169 -2 -9 300 -253 326 -263 3 -2 36 21 72 50 36 28 81 63 99 77
18 14 70 54 115 90 45 36 99 79 120 95 21 17 96 77 167 135 71 58 135 105 141
105 9 0 11 -30 7 -110 -8 -180 -5 -1215 4 -1418 l8 -188 25 16 c22 15 33 23
83 65 9 8 83 69 164 134 l146 119 -1 726 c-1 399 -5 921 -8 1158 l-6 433 -180
-156 c-172 -149 -439 -369 -517 -427 l-36 -27 -254 203 c-323 259 -558 449
-727 590 -74 62 -139 115 -145 118 -6 4 -72 -45 -146 -108z"/>
</g>
</svg>
